<svg xmlns="http://www.w3.org/2000/svg" xmlns:xlink="http://www.w3.org/1999/xlink" width="150" zoomAndPan="magnify" viewBox="0 0 112.5 112.499997" height="150" preserveAspectRatio="xMidYMid meet" version="1.0"><defs><g/></defs><path fill="#ffbd59" d="M 38.242188 108.671875 C 34.566406 108.671875 31.222656 106.480469 29.785156 103.089844 L 26.355469 95.078125 C 24.183594 90.761719 20.6875 87.53125 16.257812 85.757812 L 9.949219 83.234375 C 6.917969 82.039062 4.75 79.292969 4.261719 76.085938 C 4.019531 74.46875 4.21875 72.808594 4.816406 71.28125 L 7.316406 65.082031 C 9.175781 60.433594 9.199219 55.320312 7.359375 50.671875 C 7.207031 50.296875 7.050781 49.917969 6.894531 49.566406 L 3.707031 42.105469 C 2.957031 40.332031 2.777344 38.386719 3.199219 36.503906 C 3.839844 33.605469 5.832031 31.214844 8.554688 30.039062 L 17.210938 26.34375 C 21.574219 24.261719 25.003906 20.675781 26.886719 16.226562 L 29.496094 9.695312 C 30.914062 6.199219 34.257812 3.917969 38.042969 3.917969 C 39.214844 3.917969 40.367188 4.140625 41.472656 4.582031 L 48.691406 7.480469 C 50.683594 8.167969 52.761719 8.5 54.867188 8.5 C 57.5 8.5 60.089844 7.96875 62.570312 6.90625 L 69.519531 3.941406 C 70.671875 3.429688 71.890625 3.1875 73.128906 3.1875 C 76.804688 3.1875 80.125 5.378906 81.585938 8.765625 L 84.816406 16.292969 C 86.875 20.699219 90.484375 24.128906 94.957031 26.011719 L 103.035156 29.265625 C 105.316406 30.171875 107.109375 31.921875 108.082031 34.179688 C 109.035156 36.4375 109.078125 38.9375 108.171875 41.21875 L 104.785156 49.699219 C 103.148438 54.28125 103.28125 59.28125 105.140625 63.777344 L 107.707031 69.777344 C 109.699219 74.445312 107.53125 79.847656 102.882812 81.839844 L 96.085938 84.742188 C 91.789062 86.867188 88.425781 90.519531 86.632812 94.988281 L 83.488281 102.824219 C 82.074219 106.347656 78.730469 108.605469 74.945312 108.605469 C 73.769531 108.605469 72.621094 108.382812 71.511719 107.941406 L 63.101562 104.574219 C 60.953125 103.800781 58.71875 103.402344 56.4375 103.402344 C 53.847656 103.402344 51.300781 103.910156 48.867188 104.929688 L 41.828125 107.941406 C 40.699219 108.425781 39.480469 108.671875 38.242188 108.671875 Z M 38.042969 4.117188 C 34.34375 4.117188 31.070312 6.332031 29.675781 9.761719 L 27.0625 16.292969 C 25.160156 20.785156 21.683594 24.417969 17.253906 26.476562 L 8.601562 30.171875 C 5.945312 31.300781 3.972656 33.671875 3.355469 36.503906 C 2.933594 38.339844 3.109375 40.246094 3.863281 41.992188 L 7.050781 49.453125 C 7.226562 49.808594 7.382812 50.207031 7.539062 50.582031 C 9.375 55.277344 9.351562 60.457031 7.492188 65.148438 L 5.015625 71.347656 C 4.417969 72.832031 4.21875 74.46875 4.460938 76.039062 C 4.949219 79.183594 7.074219 81.863281 10.015625 83.035156 L 16.324219 85.582031 C 20.796875 87.375 24.339844 90.628906 26.53125 94.988281 L 29.960938 103.003906 C 31.378906 106.324219 34.632812 108.472656 38.242188 108.472656 C 39.460938 108.472656 40.65625 108.226562 41.785156 107.742188 L 48.824219 104.730469 C 51.28125 103.691406 53.847656 103.179688 56.460938 103.179688 C 58.761719 103.179688 61.019531 103.578125 63.191406 104.355469 L 71.601562 107.742188 C 72.6875 108.160156 73.792969 108.382812 74.945312 108.382812 C 78.640625 108.382812 81.917969 106.167969 83.289062 102.738281 L 86.433594 94.902344 C 88.25 90.386719 91.636719 86.710938 95.976562 84.5625 L 102.769531 81.664062 C 107.332031 79.714844 109.457031 74.402344 107.507812 69.84375 L 104.941406 63.84375 C 103.058594 59.304688 102.925781 54.257812 104.585938 49.609375 L 107.972656 41.128906 C 108.859375 38.894531 108.835938 36.460938 107.882812 34.246094 C 106.953125 32.03125 105.183594 30.328125 102.96875 29.441406 L 94.867188 26.1875 C 90.351562 24.285156 86.699219 20.785156 84.617188 16.359375 L 81.386719 8.832031 C 79.96875 5.511719 76.714844 3.363281 73.105469 3.363281 C 71.890625 3.363281 70.695312 3.609375 69.566406 4.09375 L 62.613281 7.082031 C 60.113281 8.144531 57.5 8.675781 54.820312 8.675781 C 52.695312 8.675781 50.59375 8.324219 48.578125 7.636719 L 41.339844 4.738281 C 40.324219 4.339844 39.195312 4.117188 38.042969 4.117188 Z M 38.042969 4.117188 " fill-opacity="1" fill-rule="nonzero"/><path fill="#ffbd59" d="M 49.332031 111.082031 C 45.722656 111.8125 42.027344 110.332031 39.925781 107.296875 L 34.964844 100.125 C 31.976562 96.339844 27.902344 93.882812 23.210938 93.019531 L 16.523438 91.800781 C 13.335938 91.203125 10.660156 88.96875 9.550781 85.914062 C 8.976562 84.386719 8.84375 82.726562 9.132812 81.109375 L 10.328125 74.558594 C 11.234375 69.644531 10.214844 64.617188 7.515625 60.433594 C 7.292969 60.101562 7.050781 59.769531 6.828125 59.4375 L 2.179688 52.753906 C 1.074219 51.160156 0.519531 49.300781 0.542969 47.351562 C 0.609375 44.382812 2.070312 41.640625 4.503906 39.957031 L 12.253906 34.601562 C 16.125 31.722656 18.804688 27.515625 19.734375 22.777344 L 20.996094 15.851562 C 21.683594 12.132812 24.496094 9.253906 28.214844 8.476562 C 29.363281 8.257812 30.539062 8.234375 31.6875 8.433594 L 39.328125 9.828125 C 41.40625 10.09375 43.53125 10.007812 45.589844 9.585938 C 48.179688 9.054688 50.617188 8.011719 52.828125 6.484375 L 59.050781 2.191406 C 60.070312 1.484375 61.21875 0.996094 62.4375 0.730469 C 66.046875 0 69.742188 1.484375 71.84375 4.515625 L 76.496094 11.246094 C 79.394531 15.140625 83.601562 17.820312 88.382812 18.75 L 96.949219 20.300781 C 99.363281 20.742188 101.464844 22.09375 102.859375 24.105469 C 104.253906 26.121094 104.785156 28.558594 104.34375 30.992188 L 102.703125 39.957031 C 102.019531 44.761719 103.125 49.652344 105.871094 53.683594 L 109.566406 59.039062 C 112.445312 63.199219 111.402344 68.933594 107.242188 71.835938 L 101.175781 76.039062 C 97.390625 79.007812 94.824219 83.234375 93.960938 87.972656 L 92.453125 96.273438 C 91.769531 99.992188 88.933594 102.890625 85.238281 103.644531 C 84.085938 103.890625 82.914062 103.890625 81.761719 103.691406 L 72.863281 102.074219 C 70.605469 101.742188 68.347656 101.808594 66.113281 102.25 C 63.566406 102.757812 61.175781 103.777344 59.007812 105.261719 L 52.695312 109.621094 C 51.679688 110.351562 50.550781 110.839844 49.332031 111.082031 Z M 28.257812 8.675781 C 24.628906 9.429688 21.859375 12.242188 21.195312 15.894531 L 19.933594 22.824219 C 18.960938 27.605469 16.28125 31.855469 12.363281 34.777344 L 4.617188 40.132812 C 2.246094 41.773438 0.808594 44.472656 0.742188 47.375 C 0.71875 49.277344 1.25 51.09375 2.335938 52.664062 L 6.960938 59.328125 C 7.207031 59.660156 7.425781 59.992188 7.648438 60.324219 C 10.394531 64.550781 11.390625 69.621094 10.503906 74.601562 L 9.308594 81.152344 C 9.019531 82.746094 9.152344 84.363281 9.707031 85.871094 C 10.8125 88.859375 13.425781 91.070312 16.546875 91.625 L 23.234375 92.84375 C 27.992188 93.707031 32.109375 96.183594 35.121094 100.035156 L 40.078125 107.210938 C 42.117188 110.175781 45.746094 111.636719 49.289062 110.90625 C 50.484375 110.664062 51.589844 110.175781 52.609375 109.488281 L 58.917969 105.128906 C 61.109375 103.625 63.523438 102.605469 66.089844 102.09375 C 68.324219 101.628906 70.628906 101.5625 72.90625 101.917969 L 81.808594 103.535156 C 82.9375 103.734375 84.085938 103.734375 85.214844 103.492188 C 88.847656 102.757812 91.613281 99.925781 92.277344 96.273438 L 93.78125 87.972656 C 94.648438 83.191406 97.238281 78.917969 101.089844 75.929688 L 107.152344 71.722656 C 111.226562 68.890625 112.246094 63.289062 109.433594 59.214844 L 105.714844 53.859375 C 102.949219 49.785156 101.820312 44.871094 102.503906 40 L 104.144531 31.015625 C 104.5625 28.644531 104.054688 26.253906 102.703125 24.285156 C 101.332031 22.3125 99.273438 20.984375 96.925781 20.566406 L 88.335938 18.992188 C 83.535156 18.042969 79.261719 15.339844 76.339844 11.421875 L 71.691406 4.691406 C 69.632812 1.726562 66.023438 0.265625 62.480469 0.996094 C 61.285156 1.238281 60.179688 1.726562 59.160156 2.414062 L 52.941406 6.707031 C 50.703125 8.257812 48.246094 9.296875 45.636719 9.828125 C 43.554688 10.25 41.429688 10.339844 39.304688 10.074219 L 31.644531 8.675781 C 30.515625 8.433594 29.363281 8.457031 28.257812 8.675781 Z M 28.257812 8.675781 " fill-opacity="1" fill-rule="nonzero"/><path fill="#ffbd59" d="M 2.027344 69.53125 C 0.0546875 66.410156 0.121094 62.449219 2.179688 59.394531 L 7.09375 52.199219 C 9.574219 48.039062 10.414062 43.367188 9.53125 38.671875 L 8.269531 31.988281 C 7.671875 28.800781 8.820312 25.5 11.277344 23.355469 C 12.496094 22.269531 14 21.539062 15.617188 21.25 L 22.171875 20.035156 C 27.085938 19.105469 31.421875 16.382812 34.367188 12.351562 C 34.609375 12.019531 34.832031 11.6875 35.054688 11.355469 L 39.636719 4.648438 C 40.722656 3.054688 42.269531 1.859375 44.085938 1.195312 C 46.851562 0.199219 49.972656 0.574219 52.410156 2.234375 L 60.179688 7.546875 C 64.253906 10.140625 69.144531 11.113281 73.902344 10.316406 L 80.8125 9.007812 C 84.53125 8.300781 88.25 9.917969 90.285156 13.105469 C 90.90625 14.078125 91.347656 15.1875 91.570312 16.335938 L 92.984375 23.996094 C 93.496094 26.03125 94.316406 27.980469 95.445312 29.753906 C 96.859375 31.988281 98.699219 33.890625 100.933594 35.398438 L 107.175781 39.667969 C 108.195312 40.378906 109.078125 41.261719 109.742188 42.324219 C 111.714844 45.445312 111.648438 49.410156 109.566406 52.464844 L 104.941406 59.238281 C 102.328125 63.332031 101.355469 68.226562 102.171875 73.007812 L 103.789062 81.574219 C 104.230469 83.988281 103.722656 86.421875 102.328125 88.460938 C 100.957031 90.496094 98.851562 91.847656 96.441406 92.3125 L 87.472656 93.992188 C 82.738281 95.078125 78.574219 97.867188 75.785156 101.851562 L 72.109375 107.230469 C 69.253906 111.414062 63.523438 112.5 59.339844 109.644531 L 53.25 105.484375 C 49.132812 103.003906 44.261719 102.117188 39.527344 103.003906 L 31.246094 104.554688 C 27.527344 105.261719 23.808594 103.644531 21.792969 100.457031 C 21.152344 99.460938 20.730469 98.375 20.511719 97.226562 L 18.851562 88.328125 C 18.339844 86.089844 17.476562 84.007812 16.257812 82.082031 C 14.863281 79.890625 13.050781 78.011719 10.902344 76.527344 L 4.59375 72.210938 C 3.554688 71.457031 2.691406 70.574219 2.027344 69.53125 Z M 90.109375 13.214844 C 88.117188 10.09375 84.484375 8.523438 80.855469 9.207031 L 73.925781 10.515625 C 69.121094 11.335938 64.1875 10.339844 60.070312 7.726562 L 52.296875 2.414062 C 49.90625 0.773438 46.875 0.375 44.152344 1.371094 C 42.382812 2.015625 40.875 3.1875 39.792969 4.757812 L 35.207031 11.46875 C 35.007812 11.800781 34.765625 12.152344 34.523438 12.484375 C 31.554688 16.558594 27.171875 19.324219 22.214844 20.253906 L 15.660156 21.496094 C 14.066406 21.78125 12.605469 22.492188 11.410156 23.554688 C 9.019531 25.65625 7.890625 28.890625 8.488281 32.011719 L 9.75 38.695312 C 10.660156 43.433594 9.796875 48.171875 7.292969 52.355469 L 2.359375 59.503906 C 0.320312 62.492188 0.253906 66.367188 2.179688 69.421875 C 2.84375 70.441406 3.6875 71.324219 4.683594 72.011719 L 11.011719 76.328125 C 13.203125 77.832031 15.019531 79.714844 16.4375 81.949219 C 17.675781 83.875 18.539062 86.003906 19.050781 88.261719 L 20.730469 97.160156 C 20.929688 98.308594 21.351562 99.371094 21.972656 100.324219 C 23.964844 103.445312 27.59375 105.019531 31.222656 104.355469 L 39.503906 102.804688 C 44.285156 101.917969 49.199219 102.804688 53.359375 105.304688 L 59.472656 109.488281 C 63.566406 112.277344 69.167969 111.214844 71.976562 107.144531 L 75.652344 101.761719 C 78.488281 97.734375 82.671875 94.902344 87.472656 93.816406 L 96.441406 92.132812 C 98.808594 91.691406 100.84375 90.363281 102.21875 88.371094 C 103.566406 86.378906 104.078125 83.988281 103.632812 81.640625 L 102.019531 73.074219 C 101.199219 68.226562 102.195312 63.289062 104.808594 59.148438 L 109.433594 52.398438 C 111.46875 49.410156 111.535156 45.535156 109.589844 42.480469 C 108.945312 41.460938 108.105469 40.578125 107.085938 39.890625 L 100.824219 35.574219 C 98.585938 34.046875 96.726562 32.121094 95.289062 29.863281 C 94.136719 28.070312 93.316406 26.121094 92.785156 24.039062 L 91.347656 16.382812 C 91.148438 15.253906 90.726562 14.191406 90.109375 13.214844 Z M 90.109375 13.214844 " fill-opacity="1" fill-rule="nonzero"/><g fill="#000000" fill-opacity="1"><g transform="translate(54.102736, 98.511293)"><g><path d="M 24.824219 0 C 34.585938 0 43.714844 -19.289062 43.714844 -36.011719 C 43.714844 -45.542969 40.40625 -51.363281 34.355469 -51.363281 C 31.617188 -51.363281 30.476562 -49.652344 32.074219 -49.082031 C 38.125 -46.914062 40.234375 -42.859375 40.234375 -34.8125 C 40.234375 -19.0625 30.589844 -3.996094 25.28125 -3.996094 C 23.285156 -3.996094 21.457031 -6.335938 21.457031 -11.1875 C 21.457031 -22.199219 27.222656 -34.699219 27.109375 -42.859375 C 27.050781 -47.710938 25.054688 -51.363281 18.890625 -51.363281 C 13.46875 -51.363281 0 -46.683594 0 -38.808594 C 0 -34.984375 2.113281 -32.417969 3.195312 -32.417969 C 3.59375 -32.417969 3.878906 -32.757812 3.878906 -33.5 C 3.878906 -42.175781 13.242188 -48.167969 19.003906 -48.167969 C 20.316406 -48.167969 20.832031 -47.371094 20.832031 -45.65625 C 20.832031 -37.609375 15.066406 -28.535156 15.066406 -14.152344 C 15.066406 -4.679688 20.660156 0 24.824219 0 Z M 24.824219 0 "/></g></g></g><g fill="#730780" fill-opacity="1"><g transform="translate(21.297585, 78.939534)"><g><path d="M 63.921875 -44.6875 C 63.921875 -41.3125 62.300781 -38.273438 59.0625 -35.578125 C 55.78125 -32.921875 52.269531 -31.59375 48.53125 -31.59375 C 47.175781 -31.59375 45.984375 -31.835938 44.953125 -32.328125 C 44.097656 -32.867188 43.625 -33.546875 43.53125 -34.359375 C 43.53125 -36.378906 44.1875 -37.390625 45.5 -37.390625 C 46.257812 -37.390625 46.660156 -37.097656 46.703125 -36.515625 C 46.703125 -36.296875 46.59375 -36.070312 46.375 -35.84375 C 46.28125 -35.75 46.222656 -35.644531 46.203125 -35.53125 C 46.179688 -35.425781 46.148438 -35.28125 46.109375 -35.09375 C 46.109375 -34.507812 46.441406 -33.992188 47.109375 -33.546875 C 47.828125 -33.097656 48.726562 -32.875 49.8125 -32.875 C 52.332031 -32.875 54.765625 -33.976562 57.109375 -36.1875 C 59.492188 -38.476562 60.6875 -40.789062 60.6875 -43.125 C 60.6875 -45.25 59.601562 -47.050781 57.4375 -48.53125 C 55.457031 -49.96875 52.847656 -50.6875 49.609375 -50.6875 C 44.484375 -50.6875 38.859375 -49.09375 32.734375 -45.90625 C 26.160156 -42.53125 22.875 -38.925781 22.875 -35.09375 C 22.875 -32.351562 24.609375 -30.285156 28.078125 -28.890625 L 46.3125 -22 C 50.8125 -20.332031 53.0625 -17.835938 53.0625 -14.515625 C 53.0625 -9.378906 50.445312 -5.21875 45.21875 -2.03125 C 42.570312 -0.5 39.535156 0.65625 36.109375 1.4375 C 32.691406 2.226562 28.800781 2.648438 24.4375 2.703125 C 17.320312 2.703125 11.203125 1.488281 6.078125 -0.9375 C 1.078125 -3.457031 -1.421875 -6.472656 -1.421875 -9.984375 C -1.421875 -12.828125 0.46875 -14.851562 4.25 -16.0625 C 5.914062 -16.507812 6.816406 -16.488281 6.953125 -16 C 6.816406 -15.90625 6.632812 -15.769531 6.40625 -15.59375 C 6.1875 -15.457031 5.929688 -15.273438 5.640625 -15.046875 C 5.347656 -14.828125 5.019531 -14.582031 4.65625 -14.3125 C 3.175781 -13.363281 2.410156 -12.082031 2.359375 -10.46875 C 2.359375 -6.820312 4.5 -3.941406 8.78125 -1.828125 C 12.875 0.203125 18.609375 1.257812 25.984375 1.34375 C 29.492188 1.34375 32.695312 1.023438 35.59375 0.390625 C 38.5 -0.234375 41.144531 -1.21875 43.53125 -2.5625 C 48.21875 -5.125 50.5625 -8.34375 50.5625 -12.21875 C 50.5625 -15.226562 48.488281 -17.546875 44.34375 -19.171875 L 26.328125 -26.390625 C 22.773438 -27.742188 20.972656 -30.148438 20.921875 -33.609375 C 20.921875 -38.335938 24.09375 -42.660156 30.4375 -46.578125 C 36.832031 -50.535156 43.785156 -52.515625 51.296875 -52.515625 C 55.304688 -52.515625 58.410156 -51.796875 60.609375 -50.359375 C 62.722656 -48.960938 63.828125 -47.070312 63.921875 -44.6875 Z M 63.921875 -44.6875 "/></g></g></g><g fill="#000000" fill-opacity="1"><g transform="translate(15.017124, 61.88233)"><g><path d="M 36.320312 8.53125 C 40.160156 8.53125 43.511719 6.300781 43.511719 3.039062 C 43.511719 -0.0898438 42.082031 -0.804688 42.082031 0.355469 C 42.082031 2.101562 39.269531 2.8125 36.988281 2.8125 C 31.628906 2.8125 25.464844 -1.160156 19.566406 -4.691406 C 22.425781 -9.203125 24.035156 -15.277344 25.375 -20.90625 C 33.996094 -22.113281 39.222656 -28.5 39.222656 -33.773438 C 39.222656 -37.347656 36.675781 -40.207031 32.65625 -40.207031 C 25.953125 -40.207031 22.382812 -32.476562 19.476562 -23.8125 C 13.089844 -25.328125 7.863281 -31.628906 7.863281 -38.554688 C 7.863281 -39.132812 7.640625 -39.402344 7.328125 -39.402344 C 6.476562 -39.402344 4.824219 -37.390625 4.824219 -34.398438 C 4.824219 -27.25 11.972656 -22.46875 18.585938 -21.085938 C 17.066406 -16.304688 15.726562 -11.480469 14.070312 -7.726562 C 11.390625 -9.023438 8.84375 -9.917969 6.523438 -9.917969 C 2.5 -9.917969 0 -7.328125 0 -3.796875 C 0 0 3.394531 2.636719 6.925781 2.636719 C 11.570312 2.636719 15.011719 0.804688 17.554688 -2.054688 C 23.363281 2.546875 29.261719 8.53125 36.320312 8.53125 Z M 2.859375 -3.886719 C 2.859375 -5.984375 4.332031 -7.328125 6.523438 -7.328125 C 8.710938 -7.328125 10.8125 -6.566406 12.910156 -5.316406 C 11.300781 -2.367188 9.382812 -0.492188 6.878906 -0.492188 C 4.644531 -0.492188 2.859375 -1.609375 2.859375 -3.886719 Z M 26.089844 -23.898438 C 27.785156 -31.136719 29.351562 -36.988281 33.191406 -36.988281 C 34.933594 -36.988281 36.050781 -35.605469 36.050781 -33.90625 C 36.050781 -29.484375 31.898438 -25.242188 26.089844 -23.898438 Z M 26.089844 -23.898438 "/></g></g></g></svg>